<mxfile host="app.diagrams.net" modified="2023-07-04T06:38:21.138Z" agent="Mozilla/5.0 (Windows NT 10.0; Win64; x64; rv:109.0) Gecko/20100101 Firefox/114.0" etag="OKQrtqHwl5MZ-4oweXIr" version="21.5.2" type="github">
  <diagram name="Page-1" id="3QgAkdv_Cc53_SK-UlMV">
    <mxGraphModel dx="1434" dy="782" grid="1" gridSize="10" guides="1" tooltips="1" connect="1" arrows="1" fold="1" page="1" pageScale="1" pageWidth="850" pageHeight="1100" math="0" shadow="0">
      <root>
        <mxCell id="0" />
        <mxCell id="1" parent="0" />
        <mxCell id="e0YRE8lAuUnDg_VTwqTF-1" value="" style="rounded=0;whiteSpace=wrap;html=1;fillColor=none;" vertex="1" parent="1">
          <mxGeometry x="105" y="120" width="640" height="400" as="geometry" />
        </mxCell>
        <mxCell id="e0YRE8lAuUnDg_VTwqTF-13" value="" style="rounded=0;whiteSpace=wrap;html=1;fillColor=none;" vertex="1" parent="1">
          <mxGeometry x="265" y="170" width="320" height="280" as="geometry" />
        </mxCell>
        <mxCell id="e0YRE8lAuUnDg_VTwqTF-2" value="" style="rounded=1;whiteSpace=wrap;html=1;" vertex="1" parent="1">
          <mxGeometry x="440" y="250" width="120" height="20" as="geometry" />
        </mxCell>
        <mxCell id="e0YRE8lAuUnDg_VTwqTF-3" value="&lt;div align=&quot;left&quot;&gt;*****&lt;/div&gt;" style="rounded=1;whiteSpace=wrap;html=1;align=left;" vertex="1" parent="1">
          <mxGeometry x="440" y="280" width="120" height="20" as="geometry" />
        </mxCell>
        <mxCell id="e0YRE8lAuUnDg_VTwqTF-10" value="&lt;div align=&quot;left&quot;&gt;*****&lt;/div&gt;" style="rounded=1;whiteSpace=wrap;html=1;align=left;" vertex="1" parent="1">
          <mxGeometry x="440" y="310" width="120" height="20" as="geometry" />
        </mxCell>
        <mxCell id="e0YRE8lAuUnDg_VTwqTF-14" value="User details" style="rounded=0;whiteSpace=wrap;html=1;fillColor=none;strokeColor=none;" vertex="1" parent="1">
          <mxGeometry x="360" y="180" width="120" height="30" as="geometry" />
        </mxCell>
        <mxCell id="e0YRE8lAuUnDg_VTwqTF-18" value="Password" style="rounded=1;whiteSpace=wrap;html=1;fillColor=none;" vertex="1" parent="1">
          <mxGeometry x="290" y="280" width="120" height="20" as="geometry" />
        </mxCell>
        <mxCell id="e0YRE8lAuUnDg_VTwqTF-19" value="Confirm Password" style="rounded=1;whiteSpace=wrap;html=1;fillColor=none;" vertex="1" parent="1">
          <mxGeometry x="290" y="310" width="120" height="20" as="geometry" />
        </mxCell>
        <mxCell id="e0YRE8lAuUnDg_VTwqTF-24" value="email" style="rounded=1;whiteSpace=wrap;html=1;fillColor=none;" vertex="1" parent="1">
          <mxGeometry x="290" y="250" width="120" height="20" as="geometry" />
        </mxCell>
      </root>
    </mxGraphModel>
  </diagram>
</mxfile>
